<svg width="50px" height="50px" viewBox="0 0 64 64" class="icon" xmlns="http://www.w3.org/2000/svg">
    <path fill="#000000"
        d="M54 25.6a12 12 0 0 1 -2.368 21.84A16.004 16.004 0 0 1 36 60h-6a2 2 0 1 1 0 -4h6a12.004 12.004 0 0 0 11.32 -8H46a2 2 0 0 1 -2 -2V26a2 2 0 0 1 2 -2h2c0.648 0 1.284 0.052 1.908 0.152a18 18 0 0 0 -35.816 0A12.063 12.063 0 0 1 16 24h2a2 2 0 0 1 2 2v20a2 2 0 0 1 -2 2h-2a12 12 0 0 1 -6 -22.4 22 22 0 0 1 44 0M16 28a8 8 0 1 0 0 16zm40 8a8 8 0 0 0 -8 -8v16a8 8 0 0 0 8 -8" />
</svg>